Patient4_TMGait_0pt3_03_left_06_EMG.mot
version=1
nRows=23
nColumns=33
inDegrees=no
endheader
time	1LAddLong	2LGlutMax	3LGlutMed	4LIliopsoas	5LSemiMemb	6LBicFemLong	7LRecFem	8LVastMed	9LVastLat	10LGasMed	11LTibAnt	12lTibPost	13LPeroneusLong	14LSol	15LExtDigLong	16LFlexDigLong	17RAddLong	18RGlutMax	19RGlutMed	20RIliopsoas	21RSemiMemb	22RBicFemLong	23RRecFem	24RVastMed	25RVastLat	26RGasMed	27RTibAnt	28RTibPost	29RPeroneusLong	30RSol	31RExtDigLong	32RFlexDigLong
11.63	-0.00412	-0.053558	-0.25665	-0.001221	0.003815	0.15427	0.081329	0.003357	-0.01358	0.10407	0.003662	-0.004883	-0.11276	0.32394	-0.013733	0.48798	0.040894	-0.011444	0.015106	0.18768	0.14633	0.036163	-0.1387	-0.081787	0.020142	0.002747	-0.014191	-0.013275	0.19226	0.003204	-0.001526	-0.010681
11.631	0.003967	-0.059357	-0.082397	-0.00351	-0.048676	0.1561	0.15152	-0.002441	0.003662	0.10681	0.000305	0.025177	-0.068665	0.24063	-0.002747	0.30334	0.034637	0.036926	0.006256	0.15182	0.088654	0.040741	-0.028992	0.030823	-0.058289	-0.007172	0.007629	-0.014496	0.081482	0.048523	-0.001984	-0.012817
11.632	0.005188	-0.059662	0.000763	-0.005341	-0.022278	0.16403	0.2327	0.002747	0.014954	0.34668	0.003967	0.067596	-0.05127	0.071411	0.005798	-0.15411	0.007019	-0.002899	-0.11002	0.15396	0.13733	0.044403	-0.0383	0.13046	-0.08606	-0.005798	0.018616	-0.010681	0.027008	0.080872	0.000305	-0.018005
11.633	0.026093	-0.03067	-0.072937	0.001373	0.053101	-0.003662	0.2121	-0.001068	-0.001526	0.00824	-0.007172	0.034485	0.005035	-0.23895	0.003815	0.54108	0.016785	-0.021667	-0.12604	0.079651	0.1709	0.019989	-0.16403	0.091095	-0.18158	-0.000763	0.022278	-0.006561	-0.016632	0.068207	0.003967	-0.023956
11.634	0.020142	-0.073242	-0.090485	0.009155	0.052032	-0.38696	0.14023	0.006866	-0.020905	0.045471	0.003357	0.010529	0.043182	-0.44281	0.020142	0.052185	0.018005	-0.032196	0.049591	-0.07431	0.14771	0.028534	-0.041809	-0.035248	0.011597	-0.00412	0.007629	-0.009766	0.011749	0.06134	-0.000305	-0.015717
11.635	0.014191	-0.078583	-0.12756	0.003204	0.039825	-0.37033	0.13702	0.00824	-0.046082	0.52277	-0.000153	0.032959	0.041504	-0.15182	0.037231	-0.15808	0.02243	-0.05661	0.009308	-0.11917	0.14984	0.028839	0.018158	0.034485	0.29419	-0.016327	-0.007935	-0.006866	-0.10849	0.030823	0.000916	-0.015869
11.636	0.005188	-0.080566	-0.15945	-0.003052	0.011444	-0.041656	0.10071	0.015564	-0.043945	-0.072327	0.003815	0.022125	0.033875	0.1709	0.022583	-0.39215	-0.006561	-0.023346	0.027618	-0.032806	0.15076	0.066376	0.063171	0.11429	0.36407	-0.005188	-0.033875	-0.009155	-0.46127	0.015411	-0.000458	-0.012054
11.637	0.001221	-0.026093	-0.10086	0.008698	-0.007477	-0.028687	0.013123	0.010681	-0.004272	-0.18066	0.001831	0.032959	0.053253	0.39627	0.010986	0.34744	-0.004425	0.00351	0.043182	0.000153	0.14771	0.03891	0.10162	0.06073	0.31189	0.020905	-0.01358	-0.005646	-0.56	-0.000458	-0.002289	-0.01709
11.638	0.003052	-0.015259	-0.093079	0.030365	-0.024414	0.048981	-0.002899	0.005493	0.027313	0.05722	0.003204	0.04776	0.15213	0.40497	0.007477	-0.14618	0.017853	-0.035248	-0.035858	0.018921	0.16296	0.025787	0.26337	-0.066376	0.34668	0.026398	0.05661	-0.007782	-0.48416	-0.049438	0.001678	-0.019226
11.639	0.009613	-0.075836	-0.13443	0.033569	-0.023041	0.031891	0.042877	0.005035	0.052948	0.26123	0.005646	0.054779	0.12955	0.17059	-0.002441	0.1622	0.007477	-0.024567	-0.15808	0.15411	0.1033	0.04303	0.17761	-0.097198	0.29709	0.032043	0.11658	-0.007019	-0.37323	-0.072937	-0.001984	-0.012054
11.64	0.005341	-0.083008	-0.15854	0.001831	0.018158	-0.037384	0.061646	0.006256	0.023346	0.51651	0.003204	0.043793	0.014801	-0.09079	0.011444	0.095215	0.013885	-0.028992	-0.25589	0.21866	0.094757	0.045166	0.036621	-0.028839	0.008698	0.009308	0.13001	-0.007019	0.022888	-0.081635	-0.003662	-0.008392
11.641	0.007629	-0.059814	-0.26169	-0.00351	0.039063	0.024872	0.078278	0.011597	-0.040894	0.42587	0.002441	0.034943	-0.083313	-0.071259	0.002136	-0.13718	0.00885	-0.051727	-0.2562	0.22034	0.088043	0.063782	-0.27756	-0.068054	-0.44784	-0.000458	0.10773	-0.00885	0.42068	-0.018005	-0.001068	-0.012207
11.642	0.005341	-0.039673	-0.37643	0.006714	-0.002899	0.12878	0.07309	0.015564	-0.064545	-0.18463	0.01236	0.056305	-0.1236	-0.063324	-0.001831	-0.029449	-0.007782	0.006409	0.12589	0.1593	0.07782	0.050812	-0.80429	-0.074463	-0.6456	-0.042725	0.036774	-0.01297	0.57724	-0.001068	0.000305	-0.001831
11.643	-0.000458	-0.018616	-0.2919	0.004578	0.002594	0.069122	0.12222	0.004578	-0.02182	-0.1889	0.007477	0.089417	-0.1062	-0.13199	-0.00946	-0.011444	0.008545	0.042419	0.25528	0.06958	0.12405	0.019073	-0.79712	-0.13123	-0.63034	-0.047607	0.030975	-0.006256	0.44449	0.071869	-0.001526	-0.001831
11.644	0.007629	0.010071	-0.048676	0.015564	0.014191	0.011139	0.14923	0.004272	-0.028381	-0.1683	0.015106	0.076447	-0.06424	-0.04303	-0.028381	-0.24811	0.037079	-0.016174	0.096436	0.016632	0.10696	0.002136	-0.26916	-0.11704	-0.42496	-0.032959	0.037079	-0.004578	0.24902	0.13229	0	0.002441
11.645	0.001526	-0.003357	0.077972	0.005646	-0.007477	-0.075378	0.075989	0.006561	-0.032654	-0.16129	0.005341	0.021057	0.000458	0.16815	-0.033264	0.27817	0.061951	0.034332	0.0383	0.045319	0.071716	-0.011902	0.045319	-0.022888	-0.13534	-0.041962	0.06073	-0.001526	0.066376	0.17303	-0.003204	-0.005035
11.646	0.007935	-0.02182	0.047455	0.005493	-0.004425	-0.16434	0.01297	0.005646	0.009003	-0.14557	0.010376	-0.000305	0.00061	0.11826	-0.014648	0.075378	0.070496	-0.031128	-0.058289	0.003204	0.053864	-0.028076	0.089417	-0.062256	0.045013	-0.039215	0.060425	-0.012207	-0.025635	0.13809	0.001831	-0.003815
11.647	0.019836	-0.027161	0.046692	-0.014343	0.005798	-0.12344	0.014191	0.001373	0.022125	-0.34225	0.005493	0.04303	0.004883	-0.094147	0.007172	-0.19379	0.050659	-0.065308	-0.047302	-0.10849	0.044403	0.021667	-0.24307	-0.086517	0.075989	-0.016479	0.051727	-0.016174	-0.043182	0.03952	-0.001984	-0.011902
11.648	0.008087	-0.006104	0.013885	-0.015869	-0.026398	-0.068512	0.087891	-0.001221	-0.005188	-0.32044	0.00946	0.030975	-0.009155	0.006104	-0.005035	-0.12604	0.032501	-0.005341	0.003967	-0.16754	0.014191	0.043793	-0.33173	-0.098114	0.053406	-0.001984	0.048218	-0.044556	-0.047607	-0.1831	-0.001984	-0.011749
11.649	-0.000305	0.004578	-0.028076	-0.005798	0.068054	0.11292	0.13245	-0.006104	-0.025635	-0.20554	0.009308	0.025482	-0.016937	0.1207	-0.001068	-0.056763	0.023499	-0.018616	0.091705	-0.094299	0.025024	0.072784	-0.31342	-0.061798	0.006256	-0.006866	0.042572	0.023804	-0.067902	-0.14374	-0.002441	-0.014343
11.65	0.00061	-0.053558	-0.042267	0.003967	0.043182	0.30731	0.10819	0.002899	-0.043793	-0.093079	0.007477	0.00885	-0.019836	-0.006561	-0.004425	-0.006409	0.023651	-0.057526	0.081024	0.01709	0.046234	0.08728	-0.2002	-0.057983	-0.05127	-0.014954	0.034332	0.030975	0.078278	0.038605	0.000916	-0.021057
11.651	0.006104	-0.0177	-0.056305	0.004272	-0.02182	0.41596	0.092468	0.002899	-0.036774	0.071259	-0.007019	0.02533	0.004272	-0.16083	-0.010223	-0.034332	0.012665	-0.04425	0.13092	0.13367	0.067596	0.092163	-0.13504	-0.10483	-0.16266	-0.018311	0.038757	-0.01297	0.40955	0.038147	-0.000916	-0.008087
11.652	0.002441	-0.030823	-0.070038	0.003662	-0.032501	0.16312	0.04715	0.005035	0.039063	0.4184	-0.008698	0.027008	0.029144	-0.20691	-0.012512	-0.048676	0.012512	-0.088348	0.057678	0.13916	0.15396	0.093231	-0.079346	0.11337	-0.39017	-0.027466	0.031738	-0.011139	0.5835	0.011444	0.000305	-0.010223
